<svg width="589" height="474" viewBox="0 0 589 474" fill="none" xmlns="http://www.w3.org/2000/svg">
<path d="M0 146C0 140.477 4.47715 136 10 136H579C584.523 136 589 140.477 589 146V198C589 203.523 584.523 208 579 208H9.99999C4.47714 208 0 203.523 0 198V146Z" fill="#CCCCCC"/>
<path d="M0 10.5C0 4.97715 4.47715 0.5 10 0.5H579C584.523 0.5 589 4.97715 589 10.5V62.5C589 68.0229 584.523 72.5 579 72.5H9.99999C4.47714 72.5 0 68.0229 0 62.5V10.5Z" fill="#CCCCCC"/>
<path d="M0 412C0 406.477 4.47715 402 10 402H579C584.523 402 589 406.477 589 412V464C589 469.523 584.523 474 579 474H9.99999C4.47714 474 0 469.523 0 464V412Z" fill="#CCCCCC"/>
<path d="M0 279C0 273.477 4.47715 269 10 269H579C584.523 269 589 273.477 589 279V331C589 336.523 584.523 341 579 341H9.99999C4.47714 341 0 336.523 0 331V279Z" fill="#CCCCCC"/>
</svg>
